# xmcd
#
# Track frame offsets: 
#        150
#        21124
#        39694
#        61414
#        78929
#        98699
#        119152
#        138487
#        159881
#        170658
#        187861
#        205403
#        225916
#        241152
#        262168
#        282666
#
# Disc length: 4036 seconds
#
# Revision: 1
# Processed by: cddbd v1.5.2PL0 Copyright (c) Steve Scherf et al.
# Submitted via: ExactAudioCopyFreeDBPlugin 1.0
#
DISCID=dd0fc210
DTITLE=Various Artist - Pride Of Marcy [CD4]
DYEAR=2009
DGENRE=Rap
TTITLE0=Jay-Z - What You Think Of That Feat. Memphis Black
TTITLE1=Jay-Z - Money, Cash, Hoes (Remix) Feat. Memphis Bleek, Beanie 
TTITLE1=Sigel and DMX
TTITLE2=Jay-Z - Bonnie And Clyde Part II Feat. Foxy Brown
TTITLE3=Jay-Z - Do You Like It ... Do You Want It ... Feat. Puff Daddy
TTITLE4=Jay-Z - Ha (Remix) Feat. Juvenile
TTITLE5=Jay-Z - For My Thugs Feat. Memphis Bleek, Amil and Beanie Sigel
TTITLE6=Jay-Z - Kill 'Em All Feat. Ja Rule
TTITLE7=Jay-Z - Heartbreaker Feat. Mariah Carey
TTITLE8=Jay-Z - Pregame Feat. Sauce Money
TTITLE9=Jay-Z - This Life Forever
TTITLE10=Jay-Z - 4 My Niggaz Feat. Blake C, Lil' Cease and Mr. Bristal
TTITLE11=Jay-Z - You Know What We Bout Feat. Silkk Tha Shocker and Maste
TTITLE11=r P
TTITLE12=Jay-Z - It's Murda Feat. DMX and Ja Rule
TTITLE13=Jay-Z - Here We Go Feat. Too Short and Jermaine Dupri
TTITLE14=Jay-Z - Bonafide Feat. O.C.
TTITLE15=Jay-Z - Hey Papi Feat. Memphis Bleek and Amil
EXTD=
EXTT0=
EXTT1=
EXTT2=
EXTT3=
EXTT4=
EXTT5=
EXTT6=
EXTT7=
EXTT8=
EXTT9=
EXTT10=
EXTT11=
EXTT12=
EXTT13=
EXTT14=
EXTT15=
PLAYORDER=
